<svg xmlns="http://www.w3.org/2000/svg" width="1920" height="1080" viewBox="0 0 1920 1080">
  <defs>
    <linearGradient id="netGrad" x1="0%" y1="0%" x2="100%" y2="100%">
      <stop offset="0%" style="stop-color:#0B1220;stop-opacity:1" />
      <stop offset="100%" style="stop-color:#1F2937;stop-opacity:1" />
    </linearGradient>
    <pattern id="gridPattern" x="0" y="0" width="80" height="80" patternUnits="userSpaceOnUse">
      <path d="M 80 0 L 0 0 0 80" fill="none" stroke="#00B3A4" stroke-width="0.3" opacity="0.3"/>
    </pattern>
  </defs>
  
  <!-- Background gradient -->
  <rect width="1920" height="1080" fill="url(#netGrad)"/>
  
  <!-- Grid overlay -->
  <rect width="1920" height="1080" fill="url(#gridPattern)"/>
  
  <!-- Network nodes -->
  <g opacity="0.6">
    <circle cx="200" cy="200" r="6" fill="#00B3A4"/>
    <circle cx="400" cy="300" r="6" fill="#00B3A4"/>
    <circle cx="600" cy="180" r="6" fill="#00B3A4"/>
    <circle cx="800" cy="350" r="6" fill="#00B3A4"/>
    <circle cx="1000" cy="250" r="6" fill="#00B3A4"/>
    <circle cx="1200" cy="400" r="6" fill="#00B3A4"/>
    <circle cx="1400" cy="220" r="6" fill="#00B3A4"/>
    <circle cx="1600" cy="320" r="6" fill="#00B3A4"/>
    <circle cx="1800" cy="280" r="6" fill="#00B3A4"/>
    
    <circle cx="300" cy="700" r="6" fill="#00B3A4"/>
    <circle cx="500" cy="850" r="6" fill="#00B3A4"/>
    <circle cx="700" cy="750" r="6" fill="#00B3A4"/>
    <circle cx="900" cy="900" r="6" fill="#00B3A4"/>
    <circle cx="1100" cy="800" r="6" fill="#00B3A4"/>
    <circle cx="1300" cy="870" r="6" fill="#00B3A4"/>
    <circle cx="1500" cy="780" r="6" fill="#00B3A4"/>
    <circle cx="1700" cy="820" r="6" fill="#00B3A4"/>
  </g>
  
  <!-- Connection lines -->
  <g opacity="0.3" stroke="#00B3A4" stroke-width="1" fill="none">
    <line x1="200" y1="200" x2="400" y2="300"/>
    <line x1="400" y1="300" x2="600" y2="180"/>
    <line x1="600" y1="180" x2="800" y2="350"/>
    <line x1="800" y1="350" x2="1000" y2="250"/>
    <line x1="1000" y1="250" x2="1200" y2="400"/>
    <line x1="1200" y1="400" x2="1400" y2="220"/>
    <line x1="1400" y1="220" x2="1600" y2="320"/>
    <line x1="1600" y1="320" x2="1800" y2="280"/>
    
    <line x1="300" y1="700" x2="500" y2="850"/>
    <line x1="500" y1="850" x2="700" y2="750"/>
    <line x1="700" y1="750" x2="900" y2="900"/>
    <line x1="900" y1="900" x2="1100" y2="800"/>
    <line x1="1100" y1="800" x2="1300" y2="870"/>
    <line x1="1300" y1="870" x2="1500" y2="780"/>
    <line x1="1500" y1="780" x2="1700" y2="820"/>
    
    <!-- Vertical connections -->
    <line x1="200" y1="200" x2="300" y2="700"/>
    <line x1="600" y1="180" x2="700" y2="750"/>
    <line x1="1000" y1="250" x2="1100" y2="800"/>
    <line x1="1400" y1="220" x2="1500" y2="780"/>
  </g>
  
  <!-- Central highlight area -->
  <circle cx="960" cy="540" r="250" fill="#00B3A4" opacity="0.05"/>
  <circle cx="960" cy="540" r="180" fill="#00B3A4" opacity="0.08"/>
</svg>
